%TF.GenerationSoftware,KiCad,Pcbnew,(5.1.10)-1*%
%TF.CreationDate,2021-07-13T16:31:19-06:00*%
%TF.ProjectId,HARDWARE,48415244-5741-4524-952e-6b696361645f,rev?*%
%TF.SameCoordinates,Original*%
%TF.FileFunction,Soldermask,Top*%
%TF.FilePolarity,Negative*%
%FSLAX46Y46*%
G04 Gerber Fmt 4.6, Leading zero omitted, Abs format (unit mm)*
G04 Created by KiCad (PCBNEW (5.1.10)-1) date 2021-07-13 16:31:19*
%MOMM*%
%LPD*%
G01*
G04 APERTURE LIST*
%ADD10O,1.700000X1.700000*%
%ADD11R,1.700000X1.700000*%
%ADD12C,1.500000*%
%ADD13C,2.300000*%
%ADD14R,1.500000X1.500000*%
%ADD15R,1.460500X0.533400*%
%ADD16C,1.600000*%
%ADD17R,1.600000X1.600000*%
%ADD18O,1.600000X1.600000*%
%ADD19R,1.970000X0.600000*%
%ADD20C,3.200000*%
%ADD21C,1.700000*%
G04 APERTURE END LIST*
D10*
%TO.C,J4*%
X80010000Y-49530000D03*
X77470000Y-49530000D03*
X74930000Y-49530000D03*
X72390000Y-49530000D03*
D11*
X69850000Y-49530000D03*
%TD*%
D12*
%TO.C,J5*%
X52820000Y-90170000D03*
D13*
X48350000Y-95010000D03*
D12*
X53840000Y-92710000D03*
X54860000Y-90170000D03*
D14*
X55880000Y-92710000D03*
D13*
X60350000Y-95010000D03*
%TD*%
%TO.C,R1*%
G36*
G01*
X74505000Y-60685000D02*
X74505000Y-61235000D01*
G75*
G02*
X74305000Y-61435000I-200000J0D01*
G01*
X73905000Y-61435000D01*
G75*
G02*
X73705000Y-61235000I0J200000D01*
G01*
X73705000Y-60685000D01*
G75*
G02*
X73905000Y-60485000I200000J0D01*
G01*
X74305000Y-60485000D01*
G75*
G02*
X74505000Y-60685000I0J-200000D01*
G01*
G37*
G36*
G01*
X76155000Y-60685000D02*
X76155000Y-61235000D01*
G75*
G02*
X75955000Y-61435000I-200000J0D01*
G01*
X75555000Y-61435000D01*
G75*
G02*
X75355000Y-61235000I0J200000D01*
G01*
X75355000Y-60685000D01*
G75*
G02*
X75555000Y-60485000I200000J0D01*
G01*
X75955000Y-60485000D01*
G75*
G02*
X76155000Y-60685000I0J-200000D01*
G01*
G37*
%TD*%
D15*
%TO.C,U1*%
X77654150Y-53975000D03*
X77654150Y-55245000D03*
X77654150Y-56515000D03*
X77654150Y-57785000D03*
X72205850Y-57785000D03*
X72205850Y-56515000D03*
X72205850Y-55245000D03*
X72205850Y-53975000D03*
%TD*%
%TO.C,R4*%
G36*
G01*
X74315000Y-81005000D02*
X74315000Y-81555000D01*
G75*
G02*
X74115000Y-81755000I-200000J0D01*
G01*
X73715000Y-81755000D01*
G75*
G02*
X73515000Y-81555000I0J200000D01*
G01*
X73515000Y-81005000D01*
G75*
G02*
X73715000Y-80805000I200000J0D01*
G01*
X74115000Y-80805000D01*
G75*
G02*
X74315000Y-81005000I0J-200000D01*
G01*
G37*
G36*
G01*
X75965000Y-81005000D02*
X75965000Y-81555000D01*
G75*
G02*
X75765000Y-81755000I-200000J0D01*
G01*
X75365000Y-81755000D01*
G75*
G02*
X75165000Y-81555000I0J200000D01*
G01*
X75165000Y-81005000D01*
G75*
G02*
X75365000Y-80805000I200000J0D01*
G01*
X75765000Y-80805000D01*
G75*
G02*
X75965000Y-81005000I0J-200000D01*
G01*
G37*
%TD*%
D16*
%TO.C,C5*%
X67310000Y-78065000D03*
D17*
X67310000Y-75565000D03*
%TD*%
%TO.C,U5*%
G36*
G01*
X76430000Y-74445000D02*
X76430000Y-74145000D01*
G75*
G02*
X76580000Y-73995000I150000J0D01*
G01*
X78230000Y-73995000D01*
G75*
G02*
X78380000Y-74145000I0J-150000D01*
G01*
X78380000Y-74445000D01*
G75*
G02*
X78230000Y-74595000I-150000J0D01*
G01*
X76580000Y-74595000D01*
G75*
G02*
X76430000Y-74445000I0J150000D01*
G01*
G37*
G36*
G01*
X76430000Y-75715000D02*
X76430000Y-75415000D01*
G75*
G02*
X76580000Y-75265000I150000J0D01*
G01*
X78230000Y-75265000D01*
G75*
G02*
X78380000Y-75415000I0J-150000D01*
G01*
X78380000Y-75715000D01*
G75*
G02*
X78230000Y-75865000I-150000J0D01*
G01*
X76580000Y-75865000D01*
G75*
G02*
X76430000Y-75715000I0J150000D01*
G01*
G37*
G36*
G01*
X76430000Y-76985000D02*
X76430000Y-76685000D01*
G75*
G02*
X76580000Y-76535000I150000J0D01*
G01*
X78230000Y-76535000D01*
G75*
G02*
X78380000Y-76685000I0J-150000D01*
G01*
X78380000Y-76985000D01*
G75*
G02*
X78230000Y-77135000I-150000J0D01*
G01*
X76580000Y-77135000D01*
G75*
G02*
X76430000Y-76985000I0J150000D01*
G01*
G37*
G36*
G01*
X76430000Y-78255000D02*
X76430000Y-77955000D01*
G75*
G02*
X76580000Y-77805000I150000J0D01*
G01*
X78230000Y-77805000D01*
G75*
G02*
X78380000Y-77955000I0J-150000D01*
G01*
X78380000Y-78255000D01*
G75*
G02*
X78230000Y-78405000I-150000J0D01*
G01*
X76580000Y-78405000D01*
G75*
G02*
X76430000Y-78255000I0J150000D01*
G01*
G37*
G36*
G01*
X71480000Y-78255000D02*
X71480000Y-77955000D01*
G75*
G02*
X71630000Y-77805000I150000J0D01*
G01*
X73280000Y-77805000D01*
G75*
G02*
X73430000Y-77955000I0J-150000D01*
G01*
X73430000Y-78255000D01*
G75*
G02*
X73280000Y-78405000I-150000J0D01*
G01*
X71630000Y-78405000D01*
G75*
G02*
X71480000Y-78255000I0J150000D01*
G01*
G37*
G36*
G01*
X71480000Y-76985000D02*
X71480000Y-76685000D01*
G75*
G02*
X71630000Y-76535000I150000J0D01*
G01*
X73280000Y-76535000D01*
G75*
G02*
X73430000Y-76685000I0J-150000D01*
G01*
X73430000Y-76985000D01*
G75*
G02*
X73280000Y-77135000I-150000J0D01*
G01*
X71630000Y-77135000D01*
G75*
G02*
X71480000Y-76985000I0J150000D01*
G01*
G37*
G36*
G01*
X71480000Y-75715000D02*
X71480000Y-75415000D01*
G75*
G02*
X71630000Y-75265000I150000J0D01*
G01*
X73280000Y-75265000D01*
G75*
G02*
X73430000Y-75415000I0J-150000D01*
G01*
X73430000Y-75715000D01*
G75*
G02*
X73280000Y-75865000I-150000J0D01*
G01*
X71630000Y-75865000D01*
G75*
G02*
X71480000Y-75715000I0J150000D01*
G01*
G37*
G36*
G01*
X71480000Y-74445000D02*
X71480000Y-74145000D01*
G75*
G02*
X71630000Y-73995000I150000J0D01*
G01*
X73280000Y-73995000D01*
G75*
G02*
X73430000Y-74145000I0J-150000D01*
G01*
X73430000Y-74445000D01*
G75*
G02*
X73280000Y-74595000I-150000J0D01*
G01*
X71630000Y-74595000D01*
G75*
G02*
X71480000Y-74445000I0J150000D01*
G01*
G37*
%TD*%
D18*
%TO.C,U4*%
X62230000Y-55880000D03*
X54610000Y-63500000D03*
X62230000Y-58420000D03*
X54610000Y-60960000D03*
X62230000Y-60960000D03*
X54610000Y-58420000D03*
X62230000Y-63500000D03*
D17*
X54610000Y-55880000D03*
%TD*%
D18*
%TO.C,U3*%
X62230000Y-69850000D03*
X54610000Y-77470000D03*
X62230000Y-72390000D03*
X54610000Y-74930000D03*
X62230000Y-74930000D03*
X54610000Y-72390000D03*
X62230000Y-77470000D03*
D17*
X54610000Y-69850000D03*
%TD*%
D19*
%TO.C,U2*%
X77400000Y-64135000D03*
X77400000Y-65405000D03*
X77400000Y-66675000D03*
X77400000Y-67945000D03*
X72460000Y-67945000D03*
X72460000Y-66675000D03*
X72460000Y-65405000D03*
X72460000Y-64135000D03*
%TD*%
%TO.C,R3*%
G36*
G01*
X40025000Y-48620000D02*
X40025000Y-49170000D01*
G75*
G02*
X39825000Y-49370000I-200000J0D01*
G01*
X39425000Y-49370000D01*
G75*
G02*
X39225000Y-49170000I0J200000D01*
G01*
X39225000Y-48620000D01*
G75*
G02*
X39425000Y-48420000I200000J0D01*
G01*
X39825000Y-48420000D01*
G75*
G02*
X40025000Y-48620000I0J-200000D01*
G01*
G37*
G36*
G01*
X41675000Y-48620000D02*
X41675000Y-49170000D01*
G75*
G02*
X41475000Y-49370000I-200000J0D01*
G01*
X41075000Y-49370000D01*
G75*
G02*
X40875000Y-49170000I0J200000D01*
G01*
X40875000Y-48620000D01*
G75*
G02*
X41075000Y-48420000I200000J0D01*
G01*
X41475000Y-48420000D01*
G75*
G02*
X41675000Y-48620000I0J-200000D01*
G01*
G37*
%TD*%
%TO.C,R2*%
G36*
G01*
X75165000Y-71395000D02*
X75165000Y-70845000D01*
G75*
G02*
X75365000Y-70645000I200000J0D01*
G01*
X75765000Y-70645000D01*
G75*
G02*
X75965000Y-70845000I0J-200000D01*
G01*
X75965000Y-71395000D01*
G75*
G02*
X75765000Y-71595000I-200000J0D01*
G01*
X75365000Y-71595000D01*
G75*
G02*
X75165000Y-71395000I0J200000D01*
G01*
G37*
G36*
G01*
X73515000Y-71395000D02*
X73515000Y-70845000D01*
G75*
G02*
X73715000Y-70645000I200000J0D01*
G01*
X74115000Y-70645000D01*
G75*
G02*
X74315000Y-70845000I0J-200000D01*
G01*
X74315000Y-71395000D01*
G75*
G02*
X74115000Y-71595000I-200000J0D01*
G01*
X73715000Y-71595000D01*
G75*
G02*
X73515000Y-71395000I0J200000D01*
G01*
G37*
%TD*%
D12*
%TO.C,J3*%
X75565000Y-84455000D03*
X74295000Y-86995000D03*
X73025000Y-84455000D03*
X71755000Y-86995000D03*
X70485000Y-84455000D03*
X69215000Y-86995000D03*
X67945000Y-84455000D03*
D14*
X66675000Y-86995000D03*
D20*
X65405000Y-93345000D03*
X76835000Y-93345000D03*
%TD*%
D10*
%TO.C,J2*%
X62230000Y-49530000D03*
X59690000Y-49530000D03*
X57150000Y-49530000D03*
X54610000Y-49530000D03*
X52070000Y-49530000D03*
D11*
X49530000Y-49530000D03*
%TD*%
D21*
%TO.C,J1*%
X41910000Y-90170000D03*
X41910000Y-87630000D03*
X41910000Y-85090000D03*
X41910000Y-82550000D03*
X41910000Y-80010000D03*
X41910000Y-77470000D03*
X41910000Y-74930000D03*
X41910000Y-72390000D03*
X41910000Y-69850000D03*
X41910000Y-67310000D03*
X41910000Y-64770000D03*
X41910000Y-62230000D03*
X41910000Y-59690000D03*
X39370000Y-90170000D03*
X39370000Y-87630000D03*
X39370000Y-85090000D03*
X39370000Y-82550000D03*
X39370000Y-80010000D03*
X39370000Y-77470000D03*
X39370000Y-74930000D03*
X39370000Y-72390000D03*
X39370000Y-69850000D03*
X39370000Y-67310000D03*
X39370000Y-64770000D03*
X39370000Y-62230000D03*
G36*
G01*
X38520000Y-60290000D02*
X38520000Y-59090000D01*
G75*
G02*
X38770000Y-58840000I250000J0D01*
G01*
X39970000Y-58840000D01*
G75*
G02*
X40220000Y-59090000I0J-250000D01*
G01*
X40220000Y-60290000D01*
G75*
G02*
X39970000Y-60540000I-250000J0D01*
G01*
X38770000Y-60540000D01*
G75*
G02*
X38520000Y-60290000I0J250000D01*
G01*
G37*
%TD*%
%TO.C,D1*%
G36*
G01*
X40875000Y-51710000D02*
X40875000Y-51160000D01*
G75*
G02*
X41075000Y-50960000I200000J0D01*
G01*
X41475000Y-50960000D01*
G75*
G02*
X41675000Y-51160000I0J-200000D01*
G01*
X41675000Y-51710000D01*
G75*
G02*
X41475000Y-51910000I-200000J0D01*
G01*
X41075000Y-51910000D01*
G75*
G02*
X40875000Y-51710000I0J200000D01*
G01*
G37*
G36*
G01*
X39225000Y-51710000D02*
X39225000Y-51160000D01*
G75*
G02*
X39425000Y-50960000I200000J0D01*
G01*
X39825000Y-50960000D01*
G75*
G02*
X40025000Y-51160000I0J-200000D01*
G01*
X40025000Y-51710000D01*
G75*
G02*
X39825000Y-51910000I-200000J0D01*
G01*
X39425000Y-51910000D01*
G75*
G02*
X39225000Y-51710000I0J200000D01*
G01*
G37*
%TD*%
%TO.C,C15*%
G36*
G01*
X83320000Y-79850000D02*
X83320000Y-78900000D01*
G75*
G02*
X83570000Y-78650000I250000J0D01*
G01*
X84070000Y-78650000D01*
G75*
G02*
X84320000Y-78900000I0J-250000D01*
G01*
X84320000Y-79850000D01*
G75*
G02*
X84070000Y-80100000I-250000J0D01*
G01*
X83570000Y-80100000D01*
G75*
G02*
X83320000Y-79850000I0J250000D01*
G01*
G37*
G36*
G01*
X81420000Y-79850000D02*
X81420000Y-78900000D01*
G75*
G02*
X81670000Y-78650000I250000J0D01*
G01*
X82170000Y-78650000D01*
G75*
G02*
X82420000Y-78900000I0J-250000D01*
G01*
X82420000Y-79850000D01*
G75*
G02*
X82170000Y-80100000I-250000J0D01*
G01*
X81670000Y-80100000D01*
G75*
G02*
X81420000Y-79850000I0J250000D01*
G01*
G37*
%TD*%
D16*
%TO.C,C14*%
X82550000Y-73700000D03*
D17*
X82550000Y-76200000D03*
%TD*%
%TO.C,C13*%
G36*
G01*
X83320000Y-70960000D02*
X83320000Y-70010000D01*
G75*
G02*
X83570000Y-69760000I250000J0D01*
G01*
X84070000Y-69760000D01*
G75*
G02*
X84320000Y-70010000I0J-250000D01*
G01*
X84320000Y-70960000D01*
G75*
G02*
X84070000Y-71210000I-250000J0D01*
G01*
X83570000Y-71210000D01*
G75*
G02*
X83320000Y-70960000I0J250000D01*
G01*
G37*
G36*
G01*
X81420000Y-70960000D02*
X81420000Y-70010000D01*
G75*
G02*
X81670000Y-69760000I250000J0D01*
G01*
X82170000Y-69760000D01*
G75*
G02*
X82420000Y-70010000I0J-250000D01*
G01*
X82420000Y-70960000D01*
G75*
G02*
X82170000Y-71210000I-250000J0D01*
G01*
X81670000Y-71210000D01*
G75*
G02*
X81420000Y-70960000I0J250000D01*
G01*
G37*
%TD*%
%TO.C,C12*%
G36*
G01*
X83000000Y-61435000D02*
X83000000Y-60485000D01*
G75*
G02*
X83250000Y-60235000I250000J0D01*
G01*
X83750000Y-60235000D01*
G75*
G02*
X84000000Y-60485000I0J-250000D01*
G01*
X84000000Y-61435000D01*
G75*
G02*
X83750000Y-61685000I-250000J0D01*
G01*
X83250000Y-61685000D01*
G75*
G02*
X83000000Y-61435000I0J250000D01*
G01*
G37*
G36*
G01*
X81100000Y-61435000D02*
X81100000Y-60485000D01*
G75*
G02*
X81350000Y-60235000I250000J0D01*
G01*
X81850000Y-60235000D01*
G75*
G02*
X82100000Y-60485000I0J-250000D01*
G01*
X82100000Y-61435000D01*
G75*
G02*
X81850000Y-61685000I-250000J0D01*
G01*
X81350000Y-61685000D01*
G75*
G02*
X81100000Y-61435000I0J250000D01*
G01*
G37*
%TD*%
%TO.C,C11*%
G36*
G01*
X49400000Y-54135000D02*
X49400000Y-55085000D01*
G75*
G02*
X49150000Y-55335000I-250000J0D01*
G01*
X48650000Y-55335000D01*
G75*
G02*
X48400000Y-55085000I0J250000D01*
G01*
X48400000Y-54135000D01*
G75*
G02*
X48650000Y-53885000I250000J0D01*
G01*
X49150000Y-53885000D01*
G75*
G02*
X49400000Y-54135000I0J-250000D01*
G01*
G37*
G36*
G01*
X51300000Y-54135000D02*
X51300000Y-55085000D01*
G75*
G02*
X51050000Y-55335000I-250000J0D01*
G01*
X50550000Y-55335000D01*
G75*
G02*
X50300000Y-55085000I0J250000D01*
G01*
X50300000Y-54135000D01*
G75*
G02*
X50550000Y-53885000I250000J0D01*
G01*
X51050000Y-53885000D01*
G75*
G02*
X51300000Y-54135000I0J-250000D01*
G01*
G37*
%TD*%
%TO.C,C10*%
G36*
G01*
X49400000Y-68740000D02*
X49400000Y-69690000D01*
G75*
G02*
X49150000Y-69940000I-250000J0D01*
G01*
X48650000Y-69940000D01*
G75*
G02*
X48400000Y-69690000I0J250000D01*
G01*
X48400000Y-68740000D01*
G75*
G02*
X48650000Y-68490000I250000J0D01*
G01*
X49150000Y-68490000D01*
G75*
G02*
X49400000Y-68740000I0J-250000D01*
G01*
G37*
G36*
G01*
X51300000Y-68740000D02*
X51300000Y-69690000D01*
G75*
G02*
X51050000Y-69940000I-250000J0D01*
G01*
X50550000Y-69940000D01*
G75*
G02*
X50300000Y-69690000I0J250000D01*
G01*
X50300000Y-68740000D01*
G75*
G02*
X50550000Y-68490000I250000J0D01*
G01*
X51050000Y-68490000D01*
G75*
G02*
X51300000Y-68740000I0J-250000D01*
G01*
G37*
%TD*%
D16*
%TO.C,C9*%
X82550000Y-67270000D03*
D17*
X82550000Y-64770000D03*
%TD*%
D16*
%TO.C,C8*%
X82550000Y-54650000D03*
D17*
X82550000Y-57150000D03*
%TD*%
D16*
%TO.C,C7*%
X49530000Y-60285000D03*
D17*
X49530000Y-57785000D03*
%TD*%
D16*
%TO.C,C6*%
X49530000Y-74295000D03*
D17*
X49530000Y-71795000D03*
%TD*%
D16*
%TO.C,C4*%
X49530000Y-66000000D03*
D17*
X49530000Y-63500000D03*
%TD*%
D16*
%TO.C,C3*%
X49530000Y-77510000D03*
D17*
X49530000Y-80010000D03*
%TD*%
D16*
%TO.C,C2*%
X67310000Y-60365000D03*
D17*
X67310000Y-62865000D03*
%TD*%
D16*
%TO.C,C1*%
X67310000Y-54650000D03*
D17*
X67310000Y-57150000D03*
%TD*%
M02*
