%FSLAX45Y45*%
G04 Gerber Fmt 4.5, Leading zero omitted, Abs format (unit mm)*
G04 Created by KiCad (PCBNEW (5.1.10)-1) date 2021-07-14 11:27:59*
%MOMM*%
%LPD*%
G01*
G04 APERTURE LIST*
%TA.AperFunction,Profile*%
%ADD10C,0.050000*%
%TD*%
%ADD11C,0.200000*%
%ADD12C,0.300000*%
G04 APERTURE END LIST*
D10*
X8445500Y-4445000D02*
G75*
G02*
X8890000Y-4889500I0J-444500D01*
G01*
X8890000Y-9715500D02*
G75*
G02*
X8445500Y-10160000I-444500J0D01*
G01*
X3746500Y-10160000D02*
G75*
G02*
X3302000Y-9715500I0J444500D01*
G01*
X3302000Y-4889500D02*
G75*
G02*
X3746500Y-4445000I444500J0D01*
G01*
X3302000Y-9715500D02*
X3302000Y-4889500D01*
X8445500Y-10160000D02*
X3746500Y-10160000D01*
X8890000Y-4889500D02*
X8890000Y-9715500D01*
X3746500Y-4445000D02*
X8445500Y-4445000D01*
D11*
X4720000Y-9386000D02*
X4950000Y-9616000D01*
X4950000Y-9386000D02*
X4720000Y-9616000D01*
X5920000Y-9386000D02*
X6150000Y-9616000D01*
X6150000Y-9386000D02*
X5920000Y-9616000D01*
X6700500Y-9334500D02*
G75*
G03*
X6700500Y-9334500I-160000J0D01*
G01*
X7843500Y-9334500D02*
G75*
G03*
X7843500Y-9334500I-160000J0D01*
G01*
D12*
X3585928Y-10628214D02*
X3585928Y-10328214D01*
X3657357Y-10328214D01*
X3700214Y-10342500D01*
X3728786Y-10371072D01*
X3743071Y-10399643D01*
X3757357Y-10456786D01*
X3757357Y-10499643D01*
X3743071Y-10556786D01*
X3728786Y-10585357D01*
X3700214Y-10613929D01*
X3657357Y-10628214D01*
X3585928Y-10628214D01*
X3885928Y-10628214D02*
X3885928Y-10428214D01*
X3885928Y-10485357D02*
X3900214Y-10456786D01*
X3914500Y-10442500D01*
X3943071Y-10428214D01*
X3971643Y-10428214D01*
X4071643Y-10628214D02*
X4071643Y-10428214D01*
X4071643Y-10328214D02*
X4057357Y-10342500D01*
X4071643Y-10356786D01*
X4085928Y-10342500D01*
X4071643Y-10328214D01*
X4071643Y-10356786D01*
X4257357Y-10628214D02*
X4228786Y-10613929D01*
X4214500Y-10585357D01*
X4214500Y-10328214D01*
X4414500Y-10628214D02*
X4385928Y-10613929D01*
X4371643Y-10585357D01*
X4371643Y-10328214D01*
X4757357Y-10628214D02*
X4757357Y-10328214D01*
X4857357Y-10542500D01*
X4957357Y-10328214D01*
X4957357Y-10628214D01*
X5228786Y-10628214D02*
X5228786Y-10471072D01*
X5214500Y-10442500D01*
X5185928Y-10428214D01*
X5128786Y-10428214D01*
X5100214Y-10442500D01*
X5228786Y-10613929D02*
X5200214Y-10628214D01*
X5128786Y-10628214D01*
X5100214Y-10613929D01*
X5085928Y-10585357D01*
X5085928Y-10556786D01*
X5100214Y-10528214D01*
X5128786Y-10513929D01*
X5200214Y-10513929D01*
X5228786Y-10499643D01*
X5371643Y-10428214D02*
X5371643Y-10728214D01*
X5371643Y-10442500D02*
X5400214Y-10428214D01*
X5457357Y-10428214D01*
X5485928Y-10442500D01*
X5500214Y-10456786D01*
X5514500Y-10485357D01*
X5514500Y-10571072D01*
X5500214Y-10599643D01*
X5485928Y-10613929D01*
X5457357Y-10628214D01*
X5400214Y-10628214D01*
X5371643Y-10613929D01*
X5643071Y-10599643D02*
X5657357Y-10613929D01*
X5643071Y-10628214D01*
X5628786Y-10613929D01*
X5643071Y-10599643D01*
X5643071Y-10628214D01*
X5643071Y-10442500D02*
X5657357Y-10456786D01*
X5643071Y-10471072D01*
X5628786Y-10456786D01*
X5643071Y-10442500D01*
X5643071Y-10471072D01*
X3069500Y-11007500D02*
X3299500Y-11237500D01*
X3299500Y-11007500D02*
X3069500Y-11237500D01*
X3571643Y-10986786D02*
X3585928Y-10972500D01*
X3614500Y-10958214D01*
X3685928Y-10958214D01*
X3714500Y-10972500D01*
X3728786Y-10986786D01*
X3743071Y-11015357D01*
X3743071Y-11043929D01*
X3728786Y-11086786D01*
X3557357Y-11258214D01*
X3743071Y-11258214D01*
X3871643Y-11229643D02*
X3885928Y-11243929D01*
X3871643Y-11258214D01*
X3857357Y-11243929D01*
X3871643Y-11229643D01*
X3871643Y-11258214D01*
X3985928Y-10958214D02*
X4171643Y-10958214D01*
X4071643Y-11072500D01*
X4114500Y-11072500D01*
X4143071Y-11086786D01*
X4157357Y-11101072D01*
X4171643Y-11129643D01*
X4171643Y-11201071D01*
X4157357Y-11229643D01*
X4143071Y-11243929D01*
X4114500Y-11258214D01*
X4028786Y-11258214D01*
X4000214Y-11243929D01*
X3985928Y-11229643D01*
X4357357Y-10958214D02*
X4385928Y-10958214D01*
X4414500Y-10972500D01*
X4428786Y-10986786D01*
X4443071Y-11015357D01*
X4457357Y-11072500D01*
X4457357Y-11143929D01*
X4443071Y-11201071D01*
X4428786Y-11229643D01*
X4414500Y-11243929D01*
X4385928Y-11258214D01*
X4357357Y-11258214D01*
X4328786Y-11243929D01*
X4314500Y-11229643D01*
X4300214Y-11201071D01*
X4285928Y-11143929D01*
X4285928Y-11072500D01*
X4300214Y-11015357D01*
X4314500Y-10986786D01*
X4328786Y-10972500D01*
X4357357Y-10958214D01*
X4643071Y-10958214D02*
X4671643Y-10958214D01*
X4700214Y-10972500D01*
X4714500Y-10986786D01*
X4728786Y-11015357D01*
X4743071Y-11072500D01*
X4743071Y-11143929D01*
X4728786Y-11201071D01*
X4714500Y-11229643D01*
X4700214Y-11243929D01*
X4671643Y-11258214D01*
X4643071Y-11258214D01*
X4614500Y-11243929D01*
X4600214Y-11229643D01*
X4585928Y-11201071D01*
X4571643Y-11143929D01*
X4571643Y-11072500D01*
X4585928Y-11015357D01*
X4600214Y-10986786D01*
X4614500Y-10972500D01*
X4643071Y-10958214D01*
X4871643Y-11258214D02*
X4871643Y-11058214D01*
X4871643Y-11086786D02*
X4885928Y-11072500D01*
X4914500Y-11058214D01*
X4957357Y-11058214D01*
X4985928Y-11072500D01*
X5000214Y-11101072D01*
X5000214Y-11258214D01*
X5000214Y-11101072D02*
X5014500Y-11072500D01*
X5043071Y-11058214D01*
X5085928Y-11058214D01*
X5114500Y-11072500D01*
X5128786Y-11101072D01*
X5128786Y-11258214D01*
X5271643Y-11258214D02*
X5271643Y-11058214D01*
X5271643Y-11086786D02*
X5285928Y-11072500D01*
X5314500Y-11058214D01*
X5357357Y-11058214D01*
X5385928Y-11072500D01*
X5400214Y-11101072D01*
X5400214Y-11258214D01*
X5400214Y-11101072D02*
X5414500Y-11072500D01*
X5443071Y-11058214D01*
X5485928Y-11058214D01*
X5514500Y-11072500D01*
X5528786Y-11101072D01*
X5528786Y-11258214D01*
X6114500Y-10943929D02*
X5857357Y-11329643D01*
X6500214Y-10958214D02*
X6528786Y-10958214D01*
X6557357Y-10972500D01*
X6571643Y-10986786D01*
X6585928Y-11015357D01*
X6600214Y-11072500D01*
X6600214Y-11143929D01*
X6585928Y-11201071D01*
X6571643Y-11229643D01*
X6557357Y-11243929D01*
X6528786Y-11258214D01*
X6500214Y-11258214D01*
X6471643Y-11243929D01*
X6457357Y-11229643D01*
X6443071Y-11201071D01*
X6428786Y-11143929D01*
X6428786Y-11072500D01*
X6443071Y-11015357D01*
X6457357Y-10986786D01*
X6471643Y-10972500D01*
X6500214Y-10958214D01*
X6728786Y-11229643D02*
X6743071Y-11243929D01*
X6728786Y-11258214D01*
X6714500Y-11243929D01*
X6728786Y-11229643D01*
X6728786Y-11258214D01*
X6928786Y-10958214D02*
X6957357Y-10958214D01*
X6985928Y-10972500D01*
X7000214Y-10986786D01*
X7014500Y-11015357D01*
X7028786Y-11072500D01*
X7028786Y-11143929D01*
X7014500Y-11201071D01*
X7000214Y-11229643D01*
X6985928Y-11243929D01*
X6957357Y-11258214D01*
X6928786Y-11258214D01*
X6900214Y-11243929D01*
X6885928Y-11229643D01*
X6871643Y-11201071D01*
X6857357Y-11143929D01*
X6857357Y-11072500D01*
X6871643Y-11015357D01*
X6885928Y-10986786D01*
X6900214Y-10972500D01*
X6928786Y-10958214D01*
X7171643Y-11258214D02*
X7228786Y-11258214D01*
X7257357Y-11243929D01*
X7271643Y-11229643D01*
X7300214Y-11186786D01*
X7314500Y-11129643D01*
X7314500Y-11015357D01*
X7300214Y-10986786D01*
X7285928Y-10972500D01*
X7257357Y-10958214D01*
X7200214Y-10958214D01*
X7171643Y-10972500D01*
X7157357Y-10986786D01*
X7143071Y-11015357D01*
X7143071Y-11086786D01*
X7157357Y-11115357D01*
X7171643Y-11129643D01*
X7200214Y-11143929D01*
X7257357Y-11143929D01*
X7285928Y-11129643D01*
X7300214Y-11115357D01*
X7314500Y-11086786D01*
X7500214Y-10958214D02*
X7528786Y-10958214D01*
X7557357Y-10972500D01*
X7571643Y-10986786D01*
X7585928Y-11015357D01*
X7600214Y-11072500D01*
X7600214Y-11143929D01*
X7585928Y-11201071D01*
X7571643Y-11229643D01*
X7557357Y-11243929D01*
X7528786Y-11258214D01*
X7500214Y-11258214D01*
X7471643Y-11243929D01*
X7457357Y-11229643D01*
X7443071Y-11201071D01*
X7428786Y-11143929D01*
X7428786Y-11072500D01*
X7443071Y-11015357D01*
X7457357Y-10986786D01*
X7471643Y-10972500D01*
X7500214Y-10958214D01*
X7857357Y-10958214D02*
X7800214Y-10958214D01*
X7771643Y-10972500D01*
X7757357Y-10986786D01*
X7728786Y-11029643D01*
X7714500Y-11086786D01*
X7714500Y-11201071D01*
X7728786Y-11229643D01*
X7743071Y-11243929D01*
X7771643Y-11258214D01*
X7828786Y-11258214D01*
X7857357Y-11243929D01*
X7871643Y-11229643D01*
X7885928Y-11201071D01*
X7885928Y-11129643D01*
X7871643Y-11101072D01*
X7857357Y-11086786D01*
X7828786Y-11072500D01*
X7771643Y-11072500D01*
X7743071Y-11086786D01*
X7728786Y-11101072D01*
X7714500Y-11129643D01*
X8000214Y-10958214D02*
X8000214Y-11015357D01*
X8114500Y-10958214D02*
X8114500Y-11015357D01*
X8557357Y-11372500D02*
X8543071Y-11358214D01*
X8514500Y-11315357D01*
X8500214Y-11286786D01*
X8485928Y-11243929D01*
X8471643Y-11172500D01*
X8471643Y-11115357D01*
X8485928Y-11043929D01*
X8500214Y-11001072D01*
X8514500Y-10972500D01*
X8543071Y-10929643D01*
X8557357Y-10915357D01*
X8657357Y-10986786D02*
X8671643Y-10972500D01*
X8700214Y-10958214D01*
X8771643Y-10958214D01*
X8800214Y-10972500D01*
X8814500Y-10986786D01*
X8828786Y-11015357D01*
X8828786Y-11043929D01*
X8814500Y-11086786D01*
X8643071Y-11258214D01*
X8828786Y-11258214D01*
X9185928Y-11258214D02*
X9185928Y-10958214D01*
X9314500Y-11258214D02*
X9314500Y-11101072D01*
X9300214Y-11072500D01*
X9271643Y-11058214D01*
X9228786Y-11058214D01*
X9200214Y-11072500D01*
X9185928Y-11086786D01*
X9500214Y-11258214D02*
X9471643Y-11243929D01*
X9457357Y-11229643D01*
X9443071Y-11201071D01*
X9443071Y-11115357D01*
X9457357Y-11086786D01*
X9471643Y-11072500D01*
X9500214Y-11058214D01*
X9543071Y-11058214D01*
X9571643Y-11072500D01*
X9585928Y-11086786D01*
X9600214Y-11115357D01*
X9600214Y-11201071D01*
X9585928Y-11229643D01*
X9571643Y-11243929D01*
X9543071Y-11258214D01*
X9500214Y-11258214D01*
X9771643Y-11258214D02*
X9743071Y-11243929D01*
X9728786Y-11215357D01*
X9728786Y-10958214D01*
X10000214Y-11243929D02*
X9971643Y-11258214D01*
X9914500Y-11258214D01*
X9885928Y-11243929D01*
X9871643Y-11215357D01*
X9871643Y-11101072D01*
X9885928Y-11072500D01*
X9914500Y-11058214D01*
X9971643Y-11058214D01*
X10000214Y-11072500D01*
X10014500Y-11101072D01*
X10014500Y-11129643D01*
X9871643Y-11158214D01*
X10128786Y-11243929D02*
X10157357Y-11258214D01*
X10214500Y-11258214D01*
X10243071Y-11243929D01*
X10257357Y-11215357D01*
X10257357Y-11201071D01*
X10243071Y-11172500D01*
X10214500Y-11158214D01*
X10171643Y-11158214D01*
X10143071Y-11143929D01*
X10128786Y-11115357D01*
X10128786Y-11101072D01*
X10143071Y-11072500D01*
X10171643Y-11058214D01*
X10214500Y-11058214D01*
X10243071Y-11072500D01*
X10357357Y-11372500D02*
X10371643Y-11358214D01*
X10400214Y-11315357D01*
X10414500Y-11286786D01*
X10428786Y-11243929D01*
X10443071Y-11172500D01*
X10443071Y-11115357D01*
X10428786Y-11043929D01*
X10414500Y-11001072D01*
X10400214Y-10972500D01*
X10371643Y-10929643D01*
X10357357Y-10915357D01*
X10900214Y-11372500D02*
X10885928Y-11358214D01*
X10857357Y-11315357D01*
X10843071Y-11286786D01*
X10828786Y-11243929D01*
X10814500Y-11172500D01*
X10814500Y-11115357D01*
X10828786Y-11043929D01*
X10843071Y-11001072D01*
X10857357Y-10972500D01*
X10885928Y-10929643D01*
X10900214Y-10915357D01*
X11014500Y-11058214D02*
X11014500Y-11258214D01*
X11014500Y-11086786D02*
X11028786Y-11072500D01*
X11057357Y-11058214D01*
X11100214Y-11058214D01*
X11128786Y-11072500D01*
X11143071Y-11101072D01*
X11143071Y-11258214D01*
X11328786Y-11258214D02*
X11300214Y-11243929D01*
X11285928Y-11229643D01*
X11271643Y-11201071D01*
X11271643Y-11115357D01*
X11285928Y-11086786D01*
X11300214Y-11072500D01*
X11328786Y-11058214D01*
X11371643Y-11058214D01*
X11400214Y-11072500D01*
X11414500Y-11086786D01*
X11428786Y-11115357D01*
X11428786Y-11201071D01*
X11414500Y-11229643D01*
X11400214Y-11243929D01*
X11371643Y-11258214D01*
X11328786Y-11258214D01*
X11514500Y-11058214D02*
X11628786Y-11058214D01*
X11557357Y-10958214D02*
X11557357Y-11215357D01*
X11571643Y-11243929D01*
X11600214Y-11258214D01*
X11628786Y-11258214D01*
X11957357Y-11058214D02*
X11957357Y-11358214D01*
X11957357Y-11072500D02*
X11985928Y-11058214D01*
X12043071Y-11058214D01*
X12071643Y-11072500D01*
X12085928Y-11086786D01*
X12100214Y-11115357D01*
X12100214Y-11201071D01*
X12085928Y-11229643D01*
X12071643Y-11243929D01*
X12043071Y-11258214D01*
X11985928Y-11258214D01*
X11957357Y-11243929D01*
X12271643Y-11258214D02*
X12243071Y-11243929D01*
X12228786Y-11215357D01*
X12228786Y-10958214D01*
X12514500Y-11258214D02*
X12514500Y-11101072D01*
X12500214Y-11072500D01*
X12471643Y-11058214D01*
X12414500Y-11058214D01*
X12385928Y-11072500D01*
X12514500Y-11243929D02*
X12485928Y-11258214D01*
X12414500Y-11258214D01*
X12385928Y-11243929D01*
X12371643Y-11215357D01*
X12371643Y-11186786D01*
X12385928Y-11158214D01*
X12414500Y-11143929D01*
X12485928Y-11143929D01*
X12514500Y-11129643D01*
X12614500Y-11058214D02*
X12728786Y-11058214D01*
X12657357Y-10958214D02*
X12657357Y-11215357D01*
X12671643Y-11243929D01*
X12700214Y-11258214D01*
X12728786Y-11258214D01*
X12943071Y-11243929D02*
X12914500Y-11258214D01*
X12857357Y-11258214D01*
X12828786Y-11243929D01*
X12814500Y-11215357D01*
X12814500Y-11101072D01*
X12828786Y-11072500D01*
X12857357Y-11058214D01*
X12914500Y-11058214D01*
X12943071Y-11072500D01*
X12957357Y-11101072D01*
X12957357Y-11129643D01*
X12814500Y-11158214D01*
X13214500Y-11258214D02*
X13214500Y-10958214D01*
X13214500Y-11243929D02*
X13185928Y-11258214D01*
X13128786Y-11258214D01*
X13100214Y-11243929D01*
X13085928Y-11229643D01*
X13071643Y-11201071D01*
X13071643Y-11115357D01*
X13085928Y-11086786D01*
X13100214Y-11072500D01*
X13128786Y-11058214D01*
X13185928Y-11058214D01*
X13214500Y-11072500D01*
X13328786Y-11372500D02*
X13343071Y-11358214D01*
X13371643Y-11315357D01*
X13385928Y-11286786D01*
X13400214Y-11243929D01*
X13414500Y-11172500D01*
X13414500Y-11115357D01*
X13400214Y-11043929D01*
X13385928Y-11001072D01*
X13371643Y-10972500D01*
X13343071Y-10929643D01*
X13328786Y-10915357D01*
X3299500Y-11518500D02*
G75*
G03*
X3299500Y-11518500I-160000J0D01*
G01*
X3557357Y-11354214D02*
X3743071Y-11354214D01*
X3643071Y-11468500D01*
X3685928Y-11468500D01*
X3714500Y-11482786D01*
X3728786Y-11497071D01*
X3743071Y-11525643D01*
X3743071Y-11597071D01*
X3728786Y-11625643D01*
X3714500Y-11639929D01*
X3685928Y-11654214D01*
X3600214Y-11654214D01*
X3571643Y-11639929D01*
X3557357Y-11625643D01*
X3871643Y-11625643D02*
X3885928Y-11639929D01*
X3871643Y-11654214D01*
X3857357Y-11639929D01*
X3871643Y-11625643D01*
X3871643Y-11654214D01*
X4000214Y-11382786D02*
X4014500Y-11368500D01*
X4043071Y-11354214D01*
X4114500Y-11354214D01*
X4143071Y-11368500D01*
X4157357Y-11382786D01*
X4171643Y-11411357D01*
X4171643Y-11439929D01*
X4157357Y-11482786D01*
X3985928Y-11654214D01*
X4171643Y-11654214D01*
X4357357Y-11354214D02*
X4385928Y-11354214D01*
X4414500Y-11368500D01*
X4428786Y-11382786D01*
X4443071Y-11411357D01*
X4457357Y-11468500D01*
X4457357Y-11539929D01*
X4443071Y-11597071D01*
X4428786Y-11625643D01*
X4414500Y-11639929D01*
X4385928Y-11654214D01*
X4357357Y-11654214D01*
X4328786Y-11639929D01*
X4314500Y-11625643D01*
X4300214Y-11597071D01*
X4285928Y-11539929D01*
X4285928Y-11468500D01*
X4300214Y-11411357D01*
X4314500Y-11382786D01*
X4328786Y-11368500D01*
X4357357Y-11354214D01*
X4643071Y-11354214D02*
X4671643Y-11354214D01*
X4700214Y-11368500D01*
X4714500Y-11382786D01*
X4728786Y-11411357D01*
X4743071Y-11468500D01*
X4743071Y-11539929D01*
X4728786Y-11597071D01*
X4714500Y-11625643D01*
X4700214Y-11639929D01*
X4671643Y-11654214D01*
X4643071Y-11654214D01*
X4614500Y-11639929D01*
X4600214Y-11625643D01*
X4585928Y-11597071D01*
X4571643Y-11539929D01*
X4571643Y-11468500D01*
X4585928Y-11411357D01*
X4600214Y-11382786D01*
X4614500Y-11368500D01*
X4643071Y-11354214D01*
X4871643Y-11654214D02*
X4871643Y-11454214D01*
X4871643Y-11482786D02*
X4885928Y-11468500D01*
X4914500Y-11454214D01*
X4957357Y-11454214D01*
X4985928Y-11468500D01*
X5000214Y-11497071D01*
X5000214Y-11654214D01*
X5000214Y-11497071D02*
X5014500Y-11468500D01*
X5043071Y-11454214D01*
X5085928Y-11454214D01*
X5114500Y-11468500D01*
X5128786Y-11497071D01*
X5128786Y-11654214D01*
X5271643Y-11654214D02*
X5271643Y-11454214D01*
X5271643Y-11482786D02*
X5285928Y-11468500D01*
X5314500Y-11454214D01*
X5357357Y-11454214D01*
X5385928Y-11468500D01*
X5400214Y-11497071D01*
X5400214Y-11654214D01*
X5400214Y-11497071D02*
X5414500Y-11468500D01*
X5443071Y-11454214D01*
X5485928Y-11454214D01*
X5514500Y-11468500D01*
X5528786Y-11497071D01*
X5528786Y-11654214D01*
X6114500Y-11339929D02*
X5857357Y-11725643D01*
X6500214Y-11354214D02*
X6528786Y-11354214D01*
X6557357Y-11368500D01*
X6571643Y-11382786D01*
X6585928Y-11411357D01*
X6600214Y-11468500D01*
X6600214Y-11539929D01*
X6585928Y-11597071D01*
X6571643Y-11625643D01*
X6557357Y-11639929D01*
X6528786Y-11654214D01*
X6500214Y-11654214D01*
X6471643Y-11639929D01*
X6457357Y-11625643D01*
X6443071Y-11597071D01*
X6428786Y-11539929D01*
X6428786Y-11468500D01*
X6443071Y-11411357D01*
X6457357Y-11382786D01*
X6471643Y-11368500D01*
X6500214Y-11354214D01*
X6728786Y-11625643D02*
X6743071Y-11639929D01*
X6728786Y-11654214D01*
X6714500Y-11639929D01*
X6728786Y-11625643D01*
X6728786Y-11654214D01*
X7028786Y-11654214D02*
X6857357Y-11654214D01*
X6943071Y-11654214D02*
X6943071Y-11354214D01*
X6914500Y-11397071D01*
X6885928Y-11425643D01*
X6857357Y-11439929D01*
X7143071Y-11382786D02*
X7157357Y-11368500D01*
X7185928Y-11354214D01*
X7257357Y-11354214D01*
X7285928Y-11368500D01*
X7300214Y-11382786D01*
X7314500Y-11411357D01*
X7314500Y-11439929D01*
X7300214Y-11482786D01*
X7128786Y-11654214D01*
X7314500Y-11654214D01*
X7571643Y-11354214D02*
X7514500Y-11354214D01*
X7485928Y-11368500D01*
X7471643Y-11382786D01*
X7443071Y-11425643D01*
X7428786Y-11482786D01*
X7428786Y-11597071D01*
X7443071Y-11625643D01*
X7457357Y-11639929D01*
X7485928Y-11654214D01*
X7543071Y-11654214D01*
X7571643Y-11639929D01*
X7585928Y-11625643D01*
X7600214Y-11597071D01*
X7600214Y-11525643D01*
X7585928Y-11497071D01*
X7571643Y-11482786D01*
X7543071Y-11468500D01*
X7485928Y-11468500D01*
X7457357Y-11482786D01*
X7443071Y-11497071D01*
X7428786Y-11525643D01*
X7785928Y-11354214D02*
X7814500Y-11354214D01*
X7843071Y-11368500D01*
X7857357Y-11382786D01*
X7871643Y-11411357D01*
X7885928Y-11468500D01*
X7885928Y-11539929D01*
X7871643Y-11597071D01*
X7857357Y-11625643D01*
X7843071Y-11639929D01*
X7814500Y-11654214D01*
X7785928Y-11654214D01*
X7757357Y-11639929D01*
X7743071Y-11625643D01*
X7728786Y-11597071D01*
X7714500Y-11539929D01*
X7714500Y-11468500D01*
X7728786Y-11411357D01*
X7743071Y-11382786D01*
X7757357Y-11368500D01*
X7785928Y-11354214D01*
X8000214Y-11354214D02*
X8000214Y-11411357D01*
X8114500Y-11354214D02*
X8114500Y-11411357D01*
X8557357Y-11768500D02*
X8543071Y-11754214D01*
X8514500Y-11711357D01*
X8500214Y-11682786D01*
X8485928Y-11639929D01*
X8471643Y-11568500D01*
X8471643Y-11511357D01*
X8485928Y-11439929D01*
X8500214Y-11397071D01*
X8514500Y-11368500D01*
X8543071Y-11325643D01*
X8557357Y-11311357D01*
X8657357Y-11382786D02*
X8671643Y-11368500D01*
X8700214Y-11354214D01*
X8771643Y-11354214D01*
X8800214Y-11368500D01*
X8814500Y-11382786D01*
X8828786Y-11411357D01*
X8828786Y-11439929D01*
X8814500Y-11482786D01*
X8643071Y-11654214D01*
X8828786Y-11654214D01*
X9185928Y-11654214D02*
X9185928Y-11354214D01*
X9314500Y-11654214D02*
X9314500Y-11497071D01*
X9300214Y-11468500D01*
X9271643Y-11454214D01*
X9228786Y-11454214D01*
X9200214Y-11468500D01*
X9185928Y-11482786D01*
X9500214Y-11654214D02*
X9471643Y-11639929D01*
X9457357Y-11625643D01*
X9443071Y-11597071D01*
X9443071Y-11511357D01*
X9457357Y-11482786D01*
X9471643Y-11468500D01*
X9500214Y-11454214D01*
X9543071Y-11454214D01*
X9571643Y-11468500D01*
X9585928Y-11482786D01*
X9600214Y-11511357D01*
X9600214Y-11597071D01*
X9585928Y-11625643D01*
X9571643Y-11639929D01*
X9543071Y-11654214D01*
X9500214Y-11654214D01*
X9771643Y-11654214D02*
X9743071Y-11639929D01*
X9728786Y-11611357D01*
X9728786Y-11354214D01*
X10000214Y-11639929D02*
X9971643Y-11654214D01*
X9914500Y-11654214D01*
X9885928Y-11639929D01*
X9871643Y-11611357D01*
X9871643Y-11497071D01*
X9885928Y-11468500D01*
X9914500Y-11454214D01*
X9971643Y-11454214D01*
X10000214Y-11468500D01*
X10014500Y-11497071D01*
X10014500Y-11525643D01*
X9871643Y-11554214D01*
X10128786Y-11639929D02*
X10157357Y-11654214D01*
X10214500Y-11654214D01*
X10243071Y-11639929D01*
X10257357Y-11611357D01*
X10257357Y-11597071D01*
X10243071Y-11568500D01*
X10214500Y-11554214D01*
X10171643Y-11554214D01*
X10143071Y-11539929D01*
X10128786Y-11511357D01*
X10128786Y-11497071D01*
X10143071Y-11468500D01*
X10171643Y-11454214D01*
X10214500Y-11454214D01*
X10243071Y-11468500D01*
X10357357Y-11768500D02*
X10371643Y-11754214D01*
X10400214Y-11711357D01*
X10414500Y-11682786D01*
X10428786Y-11639929D01*
X10443071Y-11568500D01*
X10443071Y-11511357D01*
X10428786Y-11439929D01*
X10414500Y-11397071D01*
X10400214Y-11368500D01*
X10371643Y-11325643D01*
X10357357Y-11311357D01*
X10900214Y-11768500D02*
X10885928Y-11754214D01*
X10857357Y-11711357D01*
X10843071Y-11682786D01*
X10828786Y-11639929D01*
X10814500Y-11568500D01*
X10814500Y-11511357D01*
X10828786Y-11439929D01*
X10843071Y-11397071D01*
X10857357Y-11368500D01*
X10885928Y-11325643D01*
X10900214Y-11311357D01*
X11014500Y-11454214D02*
X11014500Y-11654214D01*
X11014500Y-11482786D02*
X11028786Y-11468500D01*
X11057357Y-11454214D01*
X11100214Y-11454214D01*
X11128786Y-11468500D01*
X11143071Y-11497071D01*
X11143071Y-11654214D01*
X11328786Y-11654214D02*
X11300214Y-11639929D01*
X11285928Y-11625643D01*
X11271643Y-11597071D01*
X11271643Y-11511357D01*
X11285928Y-11482786D01*
X11300214Y-11468500D01*
X11328786Y-11454214D01*
X11371643Y-11454214D01*
X11400214Y-11468500D01*
X11414500Y-11482786D01*
X11428786Y-11511357D01*
X11428786Y-11597071D01*
X11414500Y-11625643D01*
X11400214Y-11639929D01*
X11371643Y-11654214D01*
X11328786Y-11654214D01*
X11514500Y-11454214D02*
X11628786Y-11454214D01*
X11557357Y-11354214D02*
X11557357Y-11611357D01*
X11571643Y-11639929D01*
X11600214Y-11654214D01*
X11628786Y-11654214D01*
X11957357Y-11454214D02*
X11957357Y-11754214D01*
X11957357Y-11468500D02*
X11985928Y-11454214D01*
X12043071Y-11454214D01*
X12071643Y-11468500D01*
X12085928Y-11482786D01*
X12100214Y-11511357D01*
X12100214Y-11597071D01*
X12085928Y-11625643D01*
X12071643Y-11639929D01*
X12043071Y-11654214D01*
X11985928Y-11654214D01*
X11957357Y-11639929D01*
X12271643Y-11654214D02*
X12243071Y-11639929D01*
X12228786Y-11611357D01*
X12228786Y-11354214D01*
X12514500Y-11654214D02*
X12514500Y-11497071D01*
X12500214Y-11468500D01*
X12471643Y-11454214D01*
X12414500Y-11454214D01*
X12385928Y-11468500D01*
X12514500Y-11639929D02*
X12485928Y-11654214D01*
X12414500Y-11654214D01*
X12385928Y-11639929D01*
X12371643Y-11611357D01*
X12371643Y-11582786D01*
X12385928Y-11554214D01*
X12414500Y-11539929D01*
X12485928Y-11539929D01*
X12514500Y-11525643D01*
X12614500Y-11454214D02*
X12728786Y-11454214D01*
X12657357Y-11354214D02*
X12657357Y-11611357D01*
X12671643Y-11639929D01*
X12700214Y-11654214D01*
X12728786Y-11654214D01*
X12943071Y-11639929D02*
X12914500Y-11654214D01*
X12857357Y-11654214D01*
X12828786Y-11639929D01*
X12814500Y-11611357D01*
X12814500Y-11497071D01*
X12828786Y-11468500D01*
X12857357Y-11454214D01*
X12914500Y-11454214D01*
X12943071Y-11468500D01*
X12957357Y-11497071D01*
X12957357Y-11525643D01*
X12814500Y-11554214D01*
X13214500Y-11654214D02*
X13214500Y-11354214D01*
X13214500Y-11639929D02*
X13185928Y-11654214D01*
X13128786Y-11654214D01*
X13100214Y-11639929D01*
X13085928Y-11625643D01*
X13071643Y-11597071D01*
X13071643Y-11511357D01*
X13085928Y-11482786D01*
X13100214Y-11468500D01*
X13128786Y-11454214D01*
X13185928Y-11454214D01*
X13214500Y-11468500D01*
X13328786Y-11768500D02*
X13343071Y-11754214D01*
X13371643Y-11711357D01*
X13385928Y-11682786D01*
X13400214Y-11639929D01*
X13414500Y-11568500D01*
X13414500Y-11511357D01*
X13400214Y-11439929D01*
X13385928Y-11397071D01*
X13371643Y-11368500D01*
X13343071Y-11325643D01*
X13328786Y-11311357D01*
M02*
