%TF.GenerationSoftware,KiCad,Pcbnew,(5.1.10)-1*%
%TF.CreationDate,2021-07-13T16:31:19-06:00*%
%TF.ProjectId,HARDWARE,48415244-5741-4524-952e-6b696361645f,rev?*%
%TF.SameCoordinates,Original*%
%TF.FileFunction,Soldermask,Bot*%
%TF.FilePolarity,Negative*%
%FSLAX46Y46*%
G04 Gerber Fmt 4.6, Leading zero omitted, Abs format (unit mm)*
G04 Created by KiCad (PCBNEW (5.1.10)-1) date 2021-07-13 16:31:19*
%MOMM*%
%LPD*%
G01*
G04 APERTURE LIST*
%ADD10O,1.700000X1.700000*%
%ADD11R,1.700000X1.700000*%
%ADD12C,1.500000*%
%ADD13C,2.300000*%
%ADD14R,1.500000X1.500000*%
%ADD15C,1.600000*%
%ADD16R,1.600000X1.600000*%
%ADD17O,1.600000X1.600000*%
%ADD18C,3.200000*%
%ADD19C,1.700000*%
G04 APERTURE END LIST*
D10*
%TO.C,J4*%
X80010000Y-49530000D03*
X77470000Y-49530000D03*
X74930000Y-49530000D03*
X72390000Y-49530000D03*
D11*
X69850000Y-49530000D03*
%TD*%
D12*
%TO.C,J5*%
X52820000Y-90170000D03*
D13*
X48350000Y-95010000D03*
D12*
X53840000Y-92710000D03*
X54860000Y-90170000D03*
D14*
X55880000Y-92710000D03*
D13*
X60350000Y-95010000D03*
%TD*%
D15*
%TO.C,C5*%
X67310000Y-78065000D03*
D16*
X67310000Y-75565000D03*
%TD*%
D17*
%TO.C,U4*%
X62230000Y-55880000D03*
X54610000Y-63500000D03*
X62230000Y-58420000D03*
X54610000Y-60960000D03*
X62230000Y-60960000D03*
X54610000Y-58420000D03*
X62230000Y-63500000D03*
D16*
X54610000Y-55880000D03*
%TD*%
D17*
%TO.C,U3*%
X62230000Y-69850000D03*
X54610000Y-77470000D03*
X62230000Y-72390000D03*
X54610000Y-74930000D03*
X62230000Y-74930000D03*
X54610000Y-72390000D03*
X62230000Y-77470000D03*
D16*
X54610000Y-69850000D03*
%TD*%
D12*
%TO.C,J3*%
X75565000Y-84455000D03*
X74295000Y-86995000D03*
X73025000Y-84455000D03*
X71755000Y-86995000D03*
X70485000Y-84455000D03*
X69215000Y-86995000D03*
X67945000Y-84455000D03*
D14*
X66675000Y-86995000D03*
D18*
X65405000Y-93345000D03*
X76835000Y-93345000D03*
%TD*%
D10*
%TO.C,J2*%
X62230000Y-49530000D03*
X59690000Y-49530000D03*
X57150000Y-49530000D03*
X54610000Y-49530000D03*
X52070000Y-49530000D03*
D11*
X49530000Y-49530000D03*
%TD*%
D19*
%TO.C,J1*%
X41910000Y-90170000D03*
X41910000Y-87630000D03*
X41910000Y-85090000D03*
X41910000Y-82550000D03*
X41910000Y-80010000D03*
X41910000Y-77470000D03*
X41910000Y-74930000D03*
X41910000Y-72390000D03*
X41910000Y-69850000D03*
X41910000Y-67310000D03*
X41910000Y-64770000D03*
X41910000Y-62230000D03*
X41910000Y-59690000D03*
X39370000Y-90170000D03*
X39370000Y-87630000D03*
X39370000Y-85090000D03*
X39370000Y-82550000D03*
X39370000Y-80010000D03*
X39370000Y-77470000D03*
X39370000Y-74930000D03*
X39370000Y-72390000D03*
X39370000Y-69850000D03*
X39370000Y-67310000D03*
X39370000Y-64770000D03*
X39370000Y-62230000D03*
G36*
G01*
X38520000Y-60290000D02*
X38520000Y-59090000D01*
G75*
G02*
X38770000Y-58840000I250000J0D01*
G01*
X39970000Y-58840000D01*
G75*
G02*
X40220000Y-59090000I0J-250000D01*
G01*
X40220000Y-60290000D01*
G75*
G02*
X39970000Y-60540000I-250000J0D01*
G01*
X38770000Y-60540000D01*
G75*
G02*
X38520000Y-60290000I0J250000D01*
G01*
G37*
%TD*%
D15*
%TO.C,C14*%
X82550000Y-73700000D03*
D16*
X82550000Y-76200000D03*
%TD*%
D15*
%TO.C,C9*%
X82550000Y-67270000D03*
D16*
X82550000Y-64770000D03*
%TD*%
D15*
%TO.C,C8*%
X82550000Y-54650000D03*
D16*
X82550000Y-57150000D03*
%TD*%
D15*
%TO.C,C7*%
X49530000Y-60285000D03*
D16*
X49530000Y-57785000D03*
%TD*%
D15*
%TO.C,C6*%
X49530000Y-74295000D03*
D16*
X49530000Y-71795000D03*
%TD*%
D15*
%TO.C,C4*%
X49530000Y-66000000D03*
D16*
X49530000Y-63500000D03*
%TD*%
D15*
%TO.C,C3*%
X49530000Y-77510000D03*
D16*
X49530000Y-80010000D03*
%TD*%
D15*
%TO.C,C2*%
X67310000Y-60365000D03*
D16*
X67310000Y-62865000D03*
%TD*%
D15*
%TO.C,C1*%
X67310000Y-54650000D03*
D16*
X67310000Y-57150000D03*
%TD*%
M02*
