M48
; DRILL file {KiCad (5.1.10)-1} date 07/14/21 11:27:49
; FORMAT={-:-/ absolute / metric / decimal}
; #@! TF.CreationDate,2021-07-14T11:27:49-06:00
; #@! TF.GenerationSoftware,Kicad,Pcbnew,(5.1.10)-1
; #@! TF.FileFunction,Plated,1,2,PTH
FMAT,2
METRIC
T1C0.400
T2C0.760
T3C0.800
T4C0.900
T5C1.000
%
G90
G05
T1
X35.56Y-76.835
X44.45Y-88.9
X44.45Y-96.52
X45.72Y-77.47
X50.8Y-85.09
X52.705Y-67.945
X57.785Y-82.55
X57.785Y-86.36
X70.485Y-66.675
X76.835Y-69.85
X77.405Y-80.71
X81.915Y-84.455
T2
X66.675Y-86.995
X67.945Y-84.455
X69.215Y-86.995
X70.485Y-84.455
X71.755Y-86.995
X73.025Y-84.455
X74.295Y-86.995
X75.565Y-84.455
T3
X49.53Y-57.785
X49.53Y-60.285
X49.53Y-63.5
X49.53Y-66.0
X49.53Y-71.795
X49.53Y-74.295
X49.53Y-77.51
X49.53Y-80.01
X54.61Y-55.88
X54.61Y-58.42
X54.61Y-60.96
X54.61Y-63.5
X54.61Y-69.85
X54.61Y-72.39
X54.61Y-74.93
X54.61Y-77.47
X62.23Y-55.88
X62.23Y-58.42
X62.23Y-60.96
X62.23Y-63.5
X62.23Y-69.85
X62.23Y-72.39
X62.23Y-74.93
X62.23Y-77.47
X67.31Y-54.65
X67.31Y-57.15
X67.31Y-60.365
X67.31Y-62.865
X67.31Y-75.565
X67.31Y-78.065
X82.55Y-54.65
X82.55Y-57.15
X82.55Y-64.77
X82.55Y-67.27
X82.55Y-73.7
X82.55Y-76.2
T4
X52.82Y-90.17
X53.84Y-92.71
X54.86Y-90.17
X55.88Y-92.71
T5
X36.195Y-47.625
X36.195Y-98.425
X39.37Y-59.69
X39.37Y-62.23
X39.37Y-64.77
X39.37Y-67.31
X39.37Y-69.85
X39.37Y-72.39
X39.37Y-74.93
X39.37Y-77.47
X39.37Y-80.01
X39.37Y-82.55
X39.37Y-85.09
X39.37Y-87.63
X39.37Y-90.17
X41.91Y-59.69
X41.91Y-62.23
X41.91Y-64.77
X41.91Y-67.31
X41.91Y-69.85
X41.91Y-72.39
X41.91Y-74.93
X41.91Y-77.47
X41.91Y-80.01
X41.91Y-82.55
X41.91Y-85.09
X41.91Y-87.63
X41.91Y-90.17
X49.53Y-49.53
X52.07Y-49.53
X54.61Y-49.53
X57.15Y-49.53
X59.69Y-49.53
X62.23Y-49.53
X69.85Y-49.53
X72.39Y-49.53
X74.93Y-49.53
X77.47Y-49.53
X80.01Y-49.53
X85.725Y-47.625
X85.725Y-98.425
T0
M30
